<?xml version="1.0" standalone="no"?>
<!DOCTYPE svg PUBLIC "-//W3C//DTD SVG 20010904//EN"
 "http://www.w3.org/TR/2001/REC-SVG-20010904/DTD/svg10.dtd">
<svg version="1" xmlns="http://www.w3.org/2000/svg"
 width="84" height="74" viewBox="0 0 1640 924" fill="none"
 preserveAspectRatio="xMidYMid meet">
<g transform="matrix(0.1,0,0,-0.1,0,924)"
fill="currentColor">
<path transform="matrix(2.3,0,0,2.9,-11263.2,-11357.4)" d="M 9676.4 7669.2 c 3 -5 8 -10 11 -10 c 2 0 4 5 4 10 c 0 6 -5 10 -11 10 c -5 0 -7 -4 -4 -10 z"/>
<path transform="matrix(2.3,0,0,2.9,-9954.4,-11338.2)" d="M 8064.3 7652.7 c 0 -5 5 -10 11 -10 c 5 0 7 5 4 10 c -3 6 -8 10 -11 10 c -2 0 -4 -4 -4 -10 z"/>
<path transform="matrix(2.3,0,0,2.9,-9805,-11066.8)" d="M 7813.6 7508.2 c 9 -96 23 -173 34 -200 c 10 -23 18 -28 47 -28 c 37 0 75 14 75 28 c 0 4 -24 8 -52 7 l -53 0 l -6 60 c -3 33 -11 70 -17 82 c -7 12 -12 40 -12 62 c 0 23 -5 41 -11 41 c -7 0 -9 -18 -5 -52 z"/>
<path transform="matrix(2.3,0,0,2.9,-10500,-11122)" d="M 8676.8 7535 c -26 -20 -30 -30 -30 -75 c 0 -69 21 -91 92 -92 c 52 -2 82 12 82 37 c 0 18 2 18 -44 -6 c -35 -17 -41 -18 -67 -4 c -51 26 -36 41 49 50 c 70 8 77 11 80 32 c 3 17 -6 33 -29 53 c -41 37 -91 39 -133 5 z m 121 -33 c 14 -21 14 -26 2 -34 c -8 -5 -30 -7 -49 -4 c -19 2 -43 5 -52 5 c -33 0 -16 49 22 62 c 26 8 61 -4 77 -29 z"/>
<path transform="matrix(2.3,0,0,2.9,-10796.8,-11102.5)" d="M 9045.3 7544.3 c -9 -15 -17 -174 -8 -168 c 5 3 14 31 22 63 c 13 61 31 82 68 83 c 28 0 44 -37 42 -100 c -3 -71 -2 -78 10 -60 c 5 8 10 47 10 86 c 0 65 -2 73 -25 88 c -29 19 -62 21 -68 4 c -3 -10 -9 -10 -25 -1 c -12 7 -23 9 -26 5 z"/>
<path transform="matrix(2.3,0,0,2.9,-10198.5,-11071.5)" d="M 8306.2 7490.9 c -34 -40 -35 -97 -3 -135 c 19 -22 33 -27 69 -28 c 40 -1 50 3 72 29 c 32 37 26 43 -17 16 c -42 -26 -79 -27 -100 -3 c -23 25 -22 85 1 105 c 21 20 83 22 100 5 c 20 -20 26 1 7 22 c -13 14 -31 20 -61 20 c -35 0 -47 -5 -68 -31 z"/>
<path transform="matrix(2.3,0,0,2.9,-11054.9,-11082.4)" d="M 9371.2 7506.5 c -5 -11 -10 -26 -10 -33 c 0 -16 35 -48 53 -48 c 22 -1 49 -28 45 -47 c -4 -21 -45 -30 -61 -14 c -6 6 -19 11 -29 11 c -16 0 -16 -3 -6 -20 c 10 -16 24 -20 64 -20 c 49 0 53 2 63 31 c 9 27 8 33 -16 55 c -15 13 -37 27 -49 30 c -29 7 -40 35 -20 50 c 9 6 13 14 9 17 c -12 13 -32 7 -43 -12 z"/>
<path transform="matrix(2.3,0,0,2.9,-11107.4,-11220.6)" d="M 9470.9 7566.7 c -9 -10 12 -34 30 -34 c 19 0 12 34 -8 38 c -8 1 -18 0 -22 -4 z"/>
<path transform="matrix(2.3,0,0,2.9,-9270.8,-10917.5)" d="M 7242.3 7423.3 c 4 -22 12 -43 17 -48 c 5 -6 9 -20 9 -33 c 0 -21 -3 -23 -38 -17 c -32 5 -43 2 -70 -21 c -29 -24 -32 -32 -32 -80 c 0 -46 4 -57 26 -74 c 33 -26 90 -27 124 -4 c 14 10 33 16 44 14 c 20 -3 20 -4 -4 89 c -5 19 -14 55 -20 80 c -6 24 -15 49 -20 55 c -4 5 -10 23 -12 39 c -1 16 -9 32 -17 34 c -11 4 -12 -3 -7 -34 z m 26 -144 c 24 -24 26 -76 5 -104 c -20 -26 -77 -26 -105 -1 c -44 40 -9 125 52 125 c 15 0 37 -9 48 -20 z"/>
<path transform="matrix(2.3,0,0,2.9,-11240.9,-11018.4)" d="M 9661.7 7464.7 c 0 -11 -4 -22 -9 -26 c -14 -8 -25 -89 -17 -120 c 11 -45 26 -16 26 50 c 0 35 5 67 10 70 c 6 3 10 15 10 26 c 0 10 -4 19 -10 19 c -5 0 -10 -9 -10 -19 z"/>
<path transform="matrix(2.3,0,0,2.9,-9987.9,-11023.1)" d="M 8095.9 7398.4 c 5 -92 9 -107 24 -97 c 16 10 4 143 -14 161 c -12 12 -13 3 -10 -64 z"/>
<path transform="matrix(2.3,0,0,2.9,-11444.7,-10990.2)" d="M 9836 7422.2 c -16 -106 -18 -130 -8 -140 c 6 -6 12 6 16 34 c 14 86 40 116 93 106 c 15 -3 18 -15 21 -81 c 3 -73 12 -96 26 -61 c 9 23 7 137 -3 152 c -5 9 -27 14 -60 14 c -28 -1 -51 3 -51 9 c 0 5 -6 9 -14 9 c -9 0 -16 -16 -20 -42 z"/>
<path transform="matrix(2.3,0,0,2.9,-11744.5,-10782.7)" d="M 10229.9 7326.3 c -34 -15 -45 -37 -45 -94 c 0 -48 4 -60 25 -78 c 19 -17 35 -21 67 -18 c 26 3 44 0 46 -7 c 7 -19 -24 -61 -54 -75 c -32 -14 -41 -11 -88 37 c -28 28 -35 24 -22 -11 c 13 -33 72 -62 107 -53 c 35 9 84 62 84 91 c 0 12 7 39 15 58 c 8 20 15 49 15 65 c 0 15 5 33 12 40 c 7 7 10 12 8 13 c -3 0 -18 2 -34 4 c -16 2 -32 9 -36 15 c -8 13 -78 22 -100 13 z m 104 -48 c 22 -33 20 -64 -6 -92 c -26 -27 -73 -30 -100 -6 c -23 20 -24 80 -1 105 c 25 28 87 24 107 -7 z"/>
<path transform="matrix(2.3,0,0,2.9,-12301.5,-10729.8)" d="M 10936.2 7295.4 c -3 -5 -17 -10 -31 -10 c -15 0 -39 -15 -64 -41 c -37 -38 -40 -46 -40 -98 c 0 -37 6 -65 18 -83 c 70 -106 221 -97 277 16 c 17 33 20 102 5 111 c -5 3 -10 13 -10 22 c 0 21 -58 73 -81 73 c -10 0 -21 5 -24 10 c -3 6 -15 10 -25 10 c -10 0 -22 -4 -25 -10 z m 59 -31 c 49 -21 96 -80 96 -119 c 0 -46 -55 -119 -90 -120 c -9 0 -20 -4 -26 -10 c -16 -16 -86 11 -116 44 c -24 25 -28 38 -28 86 c 0 48 4 60 28 82 c 15 14 37 29 50 33 c 12 3 22 11 22 16 c 0 13 12 11 64 -12 z"/>
<path transform="matrix(2.3,0,0,2.9,-8975,-10659.8)" d="M 6815.2 7145.5 c -14 -15 -25 -22 -25 -15 c 0 6 -7 11 -15 11 c -8 0 -15 -6 -15 -12 c 0 -18 30 -100 40 -113 c 4 -5 10 -20 12 -33 c 1 -12 8 -21 13 -20 c 12 4 8 49 -6 63 c -5 5 -9 25 -9 45 c 0 43 24 70 62 70 c 25 0 27 -2 70 -107 c 7 -18 16 -33 20 -33 c 15 0 17 18 3 36 c -8 10 -15 27 -15 37 c 0 18 -16 51 -39 80 c -21 26 -68 22 -96 -9 z"/>
<path transform="matrix(2.3,0,0,2.9,-12632.4,-10569.9)" d="M 11393.6 7133.8 c -8 -2 -23 -24 -34 -48 c -12 -30 -24 -45 -36 -45 c -25 0 -33 -17 -13 -28 c 12 -7 14 -13 6 -28 c -37 -69 -59 -123 -54 -128 c 7 -8 42 24 42 37 c 0 6 9 30 21 54 c 16 33 26 43 45 43 c 26 0 33 17 10 26 c -16 6 -11 37 12 72 c 9 14 24 22 43 22 c 34 0 38 15 7 24 c -13 3 -25 5 -28 5 c -3 -1 -12 -3 -21 -6 z"/>
<path transform="matrix(2.3,0,0,2.9,-8674.3,-10505)" d="M 6536.9 7034.6 c -4 -11 -19 -16 -45 -16 c -83 0 -120 -87 -66 -157 c 22 -29 30 -33 72 -33 c 37 0 52 6 70 25 c 13 13 31 25 42 27 c 18 3 18 4 1 40 c -10 20 -21 47 -25 60 c -3 12 -14 34 -24 47 c -16 20 -20 21 -25 7 z m -6 -46 c 20 0 41 -50 35 -84 c -12 -63 -91 -71 -129 -12 c -21 32 -21 45 2 72 c 18 23 47 34 69 28 c 8 -2 18 -4 23 -4 z"/>
<path transform="matrix(2.3,0,0,2.9,-12805.4,-10409.9)" d="M 11608.5 6999.4 c -8 -10 -21 -31 -29 -47 c -8 -16 -23 -31 -33 -34 c -12 -3 -16 -10 -12 -23 c 4 -12 -8 -47 -29 -89 c -39 -79 -31 -106 10 -33 c 48 85 54 93 74 93 c 26 0 34 17 13 28 c -16 10 -16 13 2 51 c 19 39 29 45 68 42 c 9 -1 17 3 17 8 c 0 6 -9 11 -19 11 c -11 0 -26 2 -33 5 c -8 3 -21 -2 -29 -12 z"/>
<path transform="matrix(2.3,0,0,2.9,-12989.2,-10476.8)" d="M 11800.2 6913.1 c 0 -11 3 -14 6 -6 c 3 7 2 16 -1 19 c -3 4 -6 -2 -5 -13 z"/>
<path transform="matrix(2.3,0,0,2.9,-8298.8,-10183.2)" d="M 5996.2 6756.1 c -8 -7 -22 -16 -31 -20 c -22 -8 -24 -60 -3 -77 c 10 -8 33 -11 65 -8 c 29 3 57 0 66 -6 c 34 -25 -29 -81 -66 -59 c -23 15 -34 5 -15 -13 c 16 -16 55 -19 55 -4 c 0 6 8 10 18 10 c 9 0 25 13 34 29 c 16 29 16 31 -7 55 c -20 21 -30 25 -57 20 c -18 -4 -35 -7 -38 -6 c -32 0 -40 5 -40 21 c 0 23 17 38 50 43 c 14 1 25 8 25 13 c 0 16 -41 18 -56 2 z"/>
<path transform="matrix(2.3,0,0,2.9,-12891.9,-10223)" d="M 11697.9 6743.5 c -12 -16 -21 -32 -21 -35 c 0 -4 -11 -24 -24 -45 c -27 -42 -21 -74 7 -41 c 9 11 17 23 17 25 c 0 3 11 22 23 43 c 43 68 41 114 -2 53 z"/>
<path transform="matrix(2.3,0,0,2.9,-8082,-10107.7)" d="M 5718.3 6667.3 c 5 -28 2 -39 -12 -50 c -17 -12 -16 -13 12 -14 c 28 0 65 -28 65 -48 c 0 -13 58 -77 64 -71 c 7 7 -9 40 -41 86 c -27 36 -30 68 -7 77 c 26 10 5 26 -25 20 c -23 -5 -30 -2 -36 15 c -11 36 -28 24 -20 -15 z"/>
<path transform="matrix(2.3,0,0,2.9,-13078.3,-10023.6)" d="M 11865.8 6619.7 c -25 -14 -58 -65 -58 -90 c 0 -50 71 -112 116 -101 c 28 8 27 33 -1 28 c -27 -5 -65 18 -81 50 c -13 25 -13 31 2 53 c 39 60 97 58 135 -4 c 24 -40 41 -32 26 11 c -13 34 -60 68 -92 68 c -11 -1 -32 -7 -47 -15 z"/>
<path transform="matrix(2.3,0,0,2.9,-7872.9,-10142.5)" d="M 5508.7 6636.1 c -4 -7 -5 -15 -2 -18 c 9 -9 19 4 14 18 c -4 11 -6 11 -12 0 z"/>
<path transform="matrix(2.3,0,0,2.9,-7986.5,-9904.3)" d="M 5602 6474 c 0 -11 5 -20 10 -20 c 6 0 10 -5 10 -12 c 0 -6 11 -26 25 -44 c 14 -18 25 -37 25 -43 c 0 -6 7 -11 15 -11 c 20 0 19 15 -3 48 c -11 15 -30 44 -43 64 c -27 42 -39 48 -39 18 z"/>
<path transform="matrix(2.3,0,0,2.9,-10236.3,-7299.7)" d="M 9941.5 5584.1 c -149 -22 -279 -83 -362 -169 c -47 -49 -123 -187 -123 -224 c 0 -13 -4 -26 -9 -29 c -5 -3 -12 -61 -16 -128 c -9 -166 13 -375 44 -412 c 12 -15 17 -173 6 -184 c -3 -3 -58 -9 -122 -15 c -107 -8 -118 -8 -130 9 c -9 13 -13 59 -13 162 c 0 170 -10 214 -55 241 c -41 24 -43 37 -51 349 l -7 242 l -162 0 c -182 0 -192 -3 -181 -63 c 4 -19 11 -214 18 -433 c 6 -219 14 -489 17 -599 l 6 -199 l 25 -6 c 25 -6 25 -7 21 -95 c -2 -50 -8 -96 -13 -102 c -6 -7 -25 -15 -44 -19 c -19 -3 -37 -10 -40 -15 c -3 -5 -16 -9 -29 -9 c -13 0 -27 -4 -30 -10 c -3 -5 -15 -10 -25 -10 c -17 0 -46 -11 -117 -43 c -39 -18 -43 -4 -43 164 c 0 120 -3 159 -12 160 c -31 3 -74 -3 -82 -12 c -6 -5 -19 -9 -30 -9 c -12 0 -30 -7 -40 -15 c -11 -8 -30 -15 -42 -15 c -13 0 -26 -4 -29 -10 c -3 -5 -16 -10 -29 -10 c -12 0 -27 -5 -33 -11 c -6 -6 -23 -9 -39 -7 l -29 3 l 0 150 l 0 150 l 130 16 c 174 22 235 45 309 115 c 90 85 126 177 126 324 c 0 111 -15 172 -60 245 c -47 77 -159 146 -255 159 c -121 17 -187 18 -402 6 l -235 -13 l 6 -91 c 3 -50 10 -270 15 -489 c 6 -218 12 -401 15 -405 c 3 -5 7 -69 10 -143 c 5 -150 -1 -169 -58 -169 c -32 0 -197 -55 -254 -84 c -31 -16 -33 -16 -39 1 c -3 10 -15 30 -25 45 c -18 26 -18 27 2 33 c 18 6 40 57 40 95 c 0 8 5 32 10 52 c 9 30 17 39 42 46 c 41 10 57 35 40 62 c -47 76 53 163 107 94 c 25 -32 29 -102 6 -110 c -23 -9 -18 -42 7 -50 c 16 -5 27 -1 40 16 c 25 30 26 191 2 241 c -31 63 -61 94 -118 122 c -55 27 -72 47 -40 47 c 31 0 101 68 128 123 c 21 43 26 69 26 124 c 0 145 -60 214 -230 268 c -76 24 -627 36 -641 14 c -5 -8 -9 -267 -9 -576 l 0 -563 l 25 0 c 18 0 25 5 25 19 c 0 11 4 22 9 25 c 5 4 17 31 26 61 c 10 30 22 55 27 55 c 13 0 38 64 38 97 c 0 15 9 43 20 61 c 17 27 25 32 59 32 c 22 0 44 -6 51 -15 c 20 -24 30 -7 30 54 c 0 31 5 62 12 69 c 7 7 42 12 89 12 c 89 0 131 -21 164 -82 c 18 -33 18 -41 6 -75 c -19 -54 -37 -71 -94 -88 c -91 -27 -177 -15 -177 26 c 0 24 -28 5 -34 -23 c -5 -24 -1 -36 13 -49 c 21 -20 41 -97 41 -159 c 0 -43 19 -56 68 -45 c 16 3 35 0 45 -7 c 15 -11 16 -21 10 -68 c -7 -48 -11 -55 -32 -58 c -39 -6 -134 28 -165 59 c -15 16 -32 26 -37 23 c -18 -11 -8 -49 22 -80 c 17 -18 28 -37 25 -42 c -3 -6 -30 -18 -59 -27 c -28 -9 -73 -27 -98 -41 c -26 -13 -57 -24 -70 -24 c -27 0 -83 -17 -121 -36 c -14 -8 -33 -14 -40 -14 c -24 0 -139 -39 -198 -67 c -64 -31 -76 -35 -150 -58 c -30 -10 -63 -21 -72 -26 c -10 -5 -28 -9 -40 -9 c -13 0 -32 -7 -42 -15 c -11 -8 -27 -15 -37 -15 c -9 0 -20 -7 -23 -16 c -3 -9 -6 -144 -6 -300 l 0 -285 l 1068 3 c 750 2 1072 6 1085 14 c 26 15 -86 24 -294 24 l -158 0 l 2 533 l 2 532 l 57 1 c 44 1 74 9 130 36 c 40 20 91 44 113 53 c 59 26 163 74 218 101 c 57 28 92 31 101 8 c 3 -9 6 -87 6 -174 l 0 -158 l 43 -6 c 42 -6 57 -4 105 15 c 12 5 34 14 50 20 c 15 6 34 15 42 20 c 8 5 22 12 30 15 c 8 3 24 9 35 14 c 11 4 47 20 80 35 c 33 15 71 32 85 37 c 39 16 93 39 112 49 c 47 24 48 21 48 -176 c 0 -168 2 -186 18 -191 c 9 -3 25 -10 34 -15 c 10 -5 27 -9 39 -9 c 12 0 42 -7 68 -15 c 25 -7 66 -19 91 -25 c 25 -7 53 -16 62 -21 c 10 -5 29 -9 44 -9 c 14 0 35 -5 47 -12 c 21 -11 66 -22 147 -35 c 19 -3 40 -9 45 -13 c 12 -9 103 -25 129 -22 c 10 1 31 12 47 23 l 30 21 l -6 216 c -2 120 -7 301 -10 405 l -6 187 l 158 0 c 143 0 166 2 243 27 c 151 47 258 133 319 257 c 36 71 32 97 -17 129 c -113 73 -142 89 -182 103 c -25 9 -53 20 -63 25 c -19 10 -24 1 -48 -81 c -13 -48 -50 -106 -84 -130 c -46 -34 -73 -41 -152 -42 c -94 -1 -137 15 -177 63 c -24 29 -26 37 -26 137 c -1 107 -14 153 -39 137 c -6 -3 -11 -1 -11 4 c 0 6 6 11 14 11 c 34 0 30 105 -5 130 c -20 15 -26 64 -9 75 c 6 3 10 15 10 26 c 0 46 92 149 133 149 c 9 0 19 5 22 10 c 3 6 37 10 75 10 c 94 0 160 -34 207 -107 c 18 -29 33 -59 33 -67 c 0 -8 5 -25 10 -38 c 6 -13 14 -65 18 -117 l 7 -94 l 50 -12 c 28 -7 78 -16 113 -20 c 35 -4 86 -13 114 -21 c 38 -9 56 -10 65 -2 c 30 24 6 315 -34 408 c -55 130 -105 197 -193 256 c -76 50 -123 68 -245 89 c -88 16 -158 17 -250 3 z m -1645 -645 c 50 -35 54 -43 55 -118 c 0 -62 -3 -76 -26 -106 c -40 -52 -142 -84 -190 -59 c -17 10 -19 23 -19 149 c 0 76 3 141 7 144 c 3 4 38 7 77 7 c 51 0 79 -5 96 -17 z m -979 -118 c 82 -29 104 -101 52 -164 c -27 -31 -32 -33 -110 -38 c -109 -8 -113 -4 -113 103 c 0 62 4 87 16 98 c 20 21 98 21 155 1 z m 1847 -42 c 11 -21 25 -324 16 -347 c -3 -9 -14 -16 -24 -16 c -16 0 -18 16 -22 183 c -3 100 -3 185 -1 190 c 7 12 22 8 31 -10 z m 550 -447 c 15 -8 46 -22 68 -31 c 40 -16 42 -19 48 -73 c 4 -32 11 -190 16 -352 c 5 -162 13 -321 16 -352 c 8 -68 -4 -79 -70 -59 c -23 7 -57 15 -76 19 l -35 7 l -3 428 c -1 235 1 427 4 427 c 3 0 18 -6 32 -14 z m -526 -198 c 14 -11 17 -50 20 -260 c 3 -157 1 -251 -5 -257 c -7 -7 -19 -5 -38 5 l -29 14 l -2 183 l -3 182 l -48 3 l -48 3 l 3 62 l 3 62 l 40 6 c 67 10 91 10 107 -3 z m 277 -170 c 0 -101 -6 -232 -12 -293 l -12 -110 l -29 -3 c -16 -2 -33 1 -39 7 c -6 6 -25 11 -42 11 c -56 0 -64 14 -75 140 c -5 63 -10 186 -10 273 l 0 157 l 110 0 l 110 0 l -1 -182 z m -1599 86 c 0 -75 -2 -85 -15 -74 c -8 7 -14 22 -14 34 c 0 11 -3 39 -7 60 c -6 32 -4 41 11 52 c 11 8 20 14 22 14 c 2 0 3 -39 3 -86 z"/>
<path transform="matrix(2.3,0,0,2.9,-13307.2,-9792.1)" d="M 12146.9 6396.7 c -64 -61 -22 -177 61 -169 c 44 4 44 22 0 26 c -19 2 -41 11 -48 20 c -15 21 -17 72 -2 72 c 6 0 40 -20 74 -45 c 34 -24 65 -41 69 -38 c 3 4 6 30 6 59 c 0 46 -4 55 -31 78 c -42 36 -90 35 -129 -3 z m 121 -23 c 25 -27 25 -68 1 -68 c -21 0 -92 60 -92 78 c 0 22 70 15 91 -10 z"/>
<path transform="matrix(2.3,0,0,2.9,-7747.7,-9642.8)" d="M 5347.5 6307.7 c -18 -21 -38 -37 -45 -35 c -7 1 -28 -12 -46 -31 c -18 -18 -42 -36 -52 -40 c -16 -7 -16 -10 11 -40 c 15 -18 39 -49 53 -70 c 14 -20 28 -37 33 -37 c 14 0 7 26 -18 62 c -31 46 -33 98 -5 116 c 26 16 46 3 96 -62 c 25 -33 39 -45 47 -37 c 9 9 2 21 -54 89 c -15 18 -7 73 13 86 c 24 15 57 -6 93 -59 c 30 -45 39 -52 49 -37 c 11 19 -93 132 -121 132 c -12 0 -36 -17 -54 -37 z"/>
<path transform="matrix(2.3,0,0,2.9,-7481.4,-9384.3)" d="M 5003.1 6042.7 c -5 -13 -14 -26 -21 -28 c -16 -5 -5 -23 53 -87 c 27 -29 53 -49 59 -46 c 7 5 2 17 -15 34 c -44 46 -67 131 -35 131 c 5 0 9 5 9 10 c 0 21 -41 10 -50 -14 z"/>
<path transform="matrix(2.3,0,0,2.9,-7317.1,-9100.1)" d="M 4763.9 5806.8 c -33 -35 -31 -110 4 -142 c 39 -36 101 -35 137 3 c 16 16 27 39 27 55 c 0 35 -16 35 -24 1 c -11 -42 -31 -56 -77 -52 l -42 3 l 61 59 c 51 49 59 62 51 77 c -15 30 -108 27 -137 -4 z m 97 -6 c 10 -7 5 -18 -24 -50 c -46 -51 -65 -53 -65 -7 c 0 50 50 82 89 57 z"/>
<path transform="matrix(2.3,0,0,2.9,-6995.4,-8826.3)" d="M 4365.6 5603.5 c -24 -22 -43 -45 -43 -52 c 0 -14 194 -195 209 -195 c 18 0 12 17 -11 37 c -49 39 -50 47 -18 89 c 22 29 30 50 30 82 c 0 56 -19 76 -78 78 c -40 1 -51 -4 -89 -39 z m 135 -4 c 19 -26 14 -59 -14 -92 c -33 -40 -52 -39 -94 4 c -33 34 -34 37 -20 63 c 29 51 97 64 128 25 z"/>
<path transform="matrix(2.3,0,0,2.9,-6766,-8401.2)" d="M 4138.2 5141.6 c -23 -25 -12 -39 13 -17 c 10 10 24 17 30 17 c 7 0 12 5 12 10 c 0 17 -36 11 -55 -10 z"/>
<path transform="matrix(2.3,0,0,2.9,-6830.2,-8285.6)" d="M 4247.9 5057.1 c -42 -29 -82 -32 -96 -8 c -5 10 -13 14 -17 10 c -10 -10 6 -36 32 -54 c 18 -11 27 -9 72 14 c 42 22 54 24 67 13 c 8 -7 15 -19 15 -26 c 0 -8 5 -14 10 -14 c 6 0 10 13 10 28 c 0 20 -8 32 -28 44 c -28 17 -30 16 -65 -7 z"/>
<path transform="matrix(2.3,0,0,2.9,-6884.1,-8131.8)" d="M 4314.3 4919.7 c 0 -5 -11 -10 -24 -10 c -35 0 -42 -18 -11 -26 c 18 -4 32 -1 45 11 c 24 22 26 35 5 35 c -8 0 -15 -4 -15 -10 z"/>
<path transform="matrix(2.3,0,0,2.9,-6688.3,-7986.4)" d="M 4019.4 4863.1 c -46 -17 -62 -61 -40 -104 c 14 -26 43 -24 90 7 c 47 31 73 26 68 -13 c -2 -20 -11 -29 -36 -37 c -35 -12 -33 -26 3 -26 c 33 0 55 31 55 76 c 0 50 -23 67 -66 49 c -16 -6 -35 -19 -43 -28 c -7 -10 -22 -17 -32 -17 c -28 0 -27 56 1 65 c 11 3 20 13 20 21 c 0 8 -1 14 -2 13 c -2 0 -10 -3 -18 -6 z"/>
<path transform="matrix(2.3,0,0,2.9,-6540.5,-7654.1)" d="M 3839.5 4576.9 c -57 -23 -72 -107 -28 -159 c 21 -26 33 -31 68 -31 c 35 0 48 6 75 34 c 27 28 32 40 29 72 c -4 51 -22 50 -26 -1 c -4 -49 -26 -75 -64 -75 c -21 0 -28 5 -28 20 c 0 11 5 20 10 20 c 6 0 10 7 10 15 c 0 8 5 15 10 15 c 6 0 10 6 10 14 c 0 7 7 19 15 26 c 47 39 -15 77 -81 50 z m 59 -26 c 13 -13 -59 -118 -74 -108 c -15 9 -10 77 8 96 c 15 17 53 24 66 12 z"/>
<path transform="matrix(2.3,0,0,2.9,-6419.8,-7234)" d="M 3653.2 4220.7 c -18 -9 -26 -22 -28 -47 c -2 -19 -10 -39 -19 -45 c -13 -10 -13 -12 0 -23 c 23 -19 129 -72 144 -72 c 22 0 15 20 -11 30 c -39 15 -96 70 -96 94 c 0 51 47 60 116 21 c 77 -43 105 -28 31 16 c -54 33 -104 42 -137 26 z"/>
<path transform="matrix(2.3,0,0,2.9,-6122.8,-7073)" d="M 3354.6 3992.8 c 0 -8 5 -12 10 -9 c 6 4 8 11 5 16 c -9 14 -15 11 -15 -7 z"/>
<path transform="matrix(2.3,0,0,2.9,-6316.3,-6934.2)" d="M 3510.3 3920.5 c 2 -6 15 -16 28 -24 c 108 -56 156 -71 130 -41 c -13 17 -90 56 -108 56 c -7 0 -12 5 -12 10 c 0 6 -9 10 -21 10 c -11 0 -19 -5 -17 -11 z"/>
<path transform="matrix(2.3,0,0,2.9,-6239.7,-6705.8)" d="M 3438.3 3756.6 c -7 -2 -13 -9 -13 -15 c 0 -5 -7 -17 -16 -25 c -10 -11 -13 -24 -9 -42 c 13 -52 57 -55 111 -6 c 43 40 47 41 68 19 c 24 -24 19 -39 -19 -60 c -41 -22 -45 -34 -10 -34 c 20 0 30 9 47 44 c 20 43 21 44 2 69 c -28 38 -63 35 -102 -9 c -35 -39 -65 -42 -70 -7 c -2 14 5 27 22 38 c 33 22 25 43 -11 28 z"/>
<path transform="matrix(2.3,0,0,2.9,-8409.1,-6746.5)" d="M 6165 3717.6 c 0 -5 5 -10 11 -10 c 5 0 7 5 4 10 c -3 6 -8 10 -11 10 c -2 0 -4 -4 -4 -10 z"/>
<path transform="matrix(2.3,0,0,2.9,-6136,-6352.3)" d="M 3310.2 3464.1 c 0 -10 55 -41 74 -41 c 23 -1 66 -49 66 -74 c 0 -42 -51 -53 -115 -26 c -41 17 -65 19 -65 4 c 0 -8 13 -17 30 -21 c 17 -3 33 -10 36 -14 c 3 -5 29 -9 58 -9 c 57 0 70 12 79 75 c 2 17 7 37 11 46 c 5 12 1 18 -16 22 c -28 6 -87 27 -110 38 c -23 12 -48 11 -48 0 z"/>
<path transform="matrix(2.3,0,0,2.9,-9969.5,-6028.9)" d="M 7911 3128.9 c 0 -49 -9 -45 142 -66 c 37 -5 76 -13 87 -19 c 11 -6 47 -11 81 -11 l 61 0 l -3 32 c -3 36 -6 37 -138 58 c -142 23 -179 30 -203 39 c -27 10 -27 10 -27 -33 z"/>
<path transform="matrix(2.3,0,0,2.9,-5964.2,-5896)" d="M 3062.8 3089.6 c -10 -10 -17 -23 -17 -29 c 0 -6 -7 -16 -15 -23 c -18 -15 -20 -71 -3 -88 c 7 -7 27 -12 45 -12 c 18 0 33 -4 33 -10 c 0 -5 12 -10 28 -10 c 15 -1 38 -7 52 -15 c 14 -8 36 -14 51 -15 c 14 0 30 -5 36 -11 c 16 -16 33 -2 33 26 c 0 13 5 27 10 30 c 6 3 10 30 10 60 c 0 46 -4 56 -26 74 c -32 25 -71 27 -102 5 c -22 -15 -24 -14 -43 10 c -24 31 -68 35 -92 8 z m 83 -37 c 18 -33 -4 -109 -29 -100 c -9 4 -28 9 -43 12 c -23 4 -28 11 -28 35 c 0 67 72 106 100 53 z m 142 -12 c 23 -21 24 -89 2 -114 c -12 -13 -25 -17 -48 -13 c -87 15 -97 51 -37 127 c 18 22 59 22 83 0 z"/>
<path transform="matrix(2.3,0,0,2.9,-10748.9,-5804.9)" d="M 8908.7 2934.5 c 0 -36 18 -48 73 -48 c 26 0 56 -4 65 -9 c 9 -5 44 -11 77 -12 c 49 -3 60 -1 63 12 c 5 27 -26 49 -68 49 c -21 0 -50 4 -63 9 c -14 6 -53 13 -86 17 c -60 6 -61 6 -61 -18 z"/>
<path transform="matrix(2.3,0,0,2.9,-9975.1,-5669.3)" d="M 7913.4 2812.3 l 0 -90 l 63 -6 c 34 -3 109 -9 167 -14 c 58 -5 112 -11 120 -13 c 12 -3 16 10 18 67 c 3 87 -5 96 -97 106 c -109 12 -214 27 -243 34 l -28 6 l 0 -90 z"/>
<path transform="matrix(2.3,0,0,2.9,-11267.7,-5663.4)" d="M 9595.3 2802.3 c 3 -27 6 -29 53 -32 c 28 -2 54 -7 60 -13 c 5 -5 24 -9 42 -9 c 28 0 33 3 33 25 c 0 26 -5 28 -82 40 c -21 3 -54 8 -74 11 c -34 6 -35 5 -32 -22 z"/>
<path transform="matrix(2.3,0,0,2.9,-10747,-5504.6)" d="M 8907.9 2665.2 l 0 -69 l 58 -6 c 31 -3 94 -9 140 -12 l 82 -6 l 0 65 l 0 64 l -67 6 c -37 4 -71 11 -77 17 c -5 5 -38 10 -73 10 l -63 0 l 0 -69 z"/>
<path transform="matrix(2.3,0,0,2.9,-11642.4,-5551.5)" d="M 10088.7 2713.2 c -16 -40 79 -55 116 -19 c 20 20 16 22 -52 29 c -47 5 -59 3 -64 -10 z"/>
<path transform="matrix(2.3,0,0,2.9,-13133.3,-5356.7)" d="M 11997.5 2637.8 c -3 -9 -6 -34 -6 -56 c 0 -39 -1 -40 -27 -33 c -71 17 -93 18 -93 1 c 0 -9 12 -21 28 -27 c 15 -6 35 -15 44 -20 c 10 -5 24 -9 32 -9 c 15 0 66 -62 66 -79 c 0 -16 40 -13 46 4 c 3 7 -7 30 -22 50 c -25 33 -27 43 -26 111 c 2 67 1 74 -17 74 c -10 0 -22 -7 -25 -16 z"/>
<path transform="matrix(2.3,0,0,2.9,-11271.5,-5401)" d="M 9599.9 2616.9 c -4 -9 -5 -35 -3 -59 l 3 -44 l 55 -10 c 47 -9 113 -6 125 7 c 2 2 5 21 7 43 c 3 38 2 40 -37 53 c -67 23 -144 27 -150 10 z"/>
<path transform="matrix(2.3,0,0,2.9,-12907.7,-5128.8)" d="M 11668.9 2413.2 c -39 -24 -72 -52 -73 -61 c -3 -15 2 -17 40 -11 l 43 6 l 43 -70 c 30 -49 49 -71 63 -71 c 30 0 23 25 -27 102 l -45 70 l 20 22 c 21 22 28 56 13 56 c -4 0 -39 -20 -77 -43 z"/>
<path transform="matrix(2.3,0,0,2.9,-12776.4,-4925.5)" d="M 11473.9 2255.7 c -16 -9 -15 -12 8 -43 c 14 -18 25 -38 25 -44 c 0 -7 5 -12 10 -12 c 6 0 10 -4 10 -9 c 0 -6 14 -30 31 -55 c 26 -40 33 -44 50 -36 c 10 6 19 13 19 15 c 0 10 -117 189 -126 192 c -5 1 -17 -2 -27 -8 z"/>
<path transform="matrix(2.3,0,0,2.9,-12578,-4750.3)" d="M 11241 2111 c -54 -34 -75 -107 -46 -163 c 22 -42 58 -61 115 -61 c 42 0 54 5 80 31 c 29 29 41 75 25 92 c -10 10 -44 -12 -44 -29 c 0 -47 -89 -64 -122 -23 c -10 12 -18 33 -18 48 c 0 44 22 64 76 70 c 40 5 49 10 49 26 c 0 17 -7 20 -45 22 c -28 2 -55 -3 -70 -13 z"/>
<path transform="matrix(2.3,0,0,2.9,-12229.4,-4436.3)" d="M 10834.9 1853 c -39 -8 -85 -34 -85 -47 c 0 -7 7 -26 16 -42 c 72 -134 82 -149 102 -152 c 16 -3 22 2 22 17 c 0 11 -4 23 -10 26 c -5 3 -10 10 -10 16 c 0 12 37 12 45 -1 c 7 -12 75 -13 75 -2 c 0 14 -35 42 -53 42 c -13 0 -15 10 -14 55 c 3 70 -28 101 -88 88 z m 40 -53 c 17 -19 17 -21 0 -40 c -24 -27 -39 -25 -54 6 c -21 47 19 72 54 34 z"/>
<path transform="matrix(2.3,0,0,2.9,-11963,-4238.8)" d="M 10487.5 1674.7 c -47 -25 -65 -56 -66 -113 c -1 -40 4 -54 27 -78 c 31 -32 73 -44 124 -35 c 40 8 92 72 92 113 c 0 37 -42 95 -83 115 c -43 20 -54 20 -94 -2 z m 99 -62 c 24 -25 29 -36 24 -58 c -15 -61 -79 -80 -122 -37 c -21 21 -24 31 -19 58 c 9 42 13 47 39 57 c 35 14 46 11 78 -20 z"/>
<path transform="matrix(2.3,0,0,2.9,-11646.5,-4033.2)" d="M 10075.5 1485.7 c -33 -17 -36 -43 -9 -99 c 10 -21 28 -60 40 -87 c 20 -43 24 -47 49 -41 c 62 15 112 71 112 125 c 0 91 -106 148 -192 102 z m 122 -60 c 24 -30 22 -73 -4 -99 c -17 -16 -46 -19 -46 -4 c 0 6 -11 33 -25 61 c -13 29 -22 56 -19 60 c 3 5 20 9 39 9 c 25 0 39 -7 55 -27 z"/>
<path transform="matrix(2.3,0,0,2.9,-11430.3,-3817.4)" d="M 9795.9 1327 c -15 -15 -17 -234 -2 -243 c 15 -9 40 14 40 37 c 0 13 13 24 37 35 c 34 14 40 14 69 -2 c 35 -19 57 -13 47 12 c -9 23 -154 173 -167 173 c -7 0 -17 -5 -24 -12 z m 73 -88 c 15 -16 15 -22 5 -35 c -7 -8 -16 -15 -21 -15 c -13 0 -31 40 -25 56 c 7 19 20 18 41 -6 z"/>
<path transform="matrix(2.3,0,0,2.9,-11040.2,-3687.5)" d="M 9478.9 1232.7 c -4 -6 -9 -44 -12 -85 c -5 -81 -15 -97 -40 -62 c -9 13 -33 41 -54 62 c -31 33 -41 37 -53 27 c -19 -16 -12 -28 77 -124 c 93 -100 108 -99 108 6 c 0 40 3 96 6 124 c 5 41 3 52 -9 57 c -9 3 -19 1 -23 -5 z"/>
<path transform="matrix(2.3,0,0,2.9,-10836.8,-3522.9)" d="M 9066.8 1063.7 c -8 -9 -9 -20 -3 -27 c 5 -7 17 -40 27 -73 c 34 -116 54 -133 121 -101 c 40 20 47 27 35 46 c -7 11 -14 11 -38 1 c -35 -15 -52 -8 -52 19 c 0 10 -4 22 -10 25 c -5 3 -10 14 -10 23 c 0 27 -34 102 -46 102 c -6 0 -17 -7 -24 -15 z"/>
<path transform="matrix(2.3,0,0,2.9,-10610.1,-3435.7)" d="M 8810.4 997 c -5 -7 -15 -53 -22 -103 c -18 -140 -18 -140 8 -143 c 16 -3 22 2 22 16 c 0 10 8 26 18 35 c 20 19 87 23 97 7 c 8 -13 55 -13 55 1 c 0 11 -117 167 -140 186 c -19 16 -25 16 -38 1 z m 63 -98 c 17 -19 17 -22 3 -37 c -21 -21 -48 -10 -48 20 c 0 41 17 48 45 17 z"/>
<path transform="matrix(2.3,0,0,2.9,-10282.3,-3307.9)" d="M 8428.4 894.3 c -25 -10 -61 -47 -61 -64 c -1 -30 37 -56 99 -69 c 52 -10 65 -17 65 -31 c 0 -26 -46 -37 -81 -19 c -43 23 -72 1 -41 -30 c 53 -53 177 -9 177 64 c 0 40 -28 60 -87 60 c -61 0 -87 21 -60 47 c 14 14 22 15 54 5 c 40 -12 57 -5 48 20 c -10 27 -68 35 -113 17 z"/>
<path transform="matrix(2.3,0,0,2.9,-9924.2,-3198.4)" d="M 7968.3 790 c -15 -3 -18 -10 -14 -30 c 3 -15 12 -63 21 -106 c 8 -43 19 -83 24 -88 c 6 -6 31 -5 66 3 c 49 11 57 15 54 33 c -2 15 -9 20 -23 17 c -56 -11 -56 -10 -79 81 c -11 47 -23 88 -26 90 c -3 3 -13 2 -23 0 z"/>
<path transform="matrix(2.3,0,0,2.9,-9690.4,-3151.9)" d="M 7740.1 755.1 c -30 -2 -59 -8 -63 -12 c -10 -10 18 -210 31 -223 c 5 -5 33 -8 63 -6 c 47 3 54 6 57 26 c 3 20 -1 22 -42 22 c -39 0 -46 3 -46 20 c 0 14 10 22 33 28 c 22 6 32 14 32 28 c 0 15 -6 18 -32 16 c -24 -2 -34 2 -43 18 c -10 18 -7 22 34 40 c 33 14 44 23 40 35 c -3 8 -7 14 -8 13 c 0 -1 -26 -3 -56 -5 z"/>
</g>
</svg>
